<svg aria-hidden="true" style="position: absolute; width: 0; height: 0; overflow: hidden;" version="1.1" xmlns="http://www.w3.org/2000/svg" xmlns:xlink="http://www.w3.org/1999/xlink">
<defs>
<symbol id="icon-location" viewBox="0 0 32 32">
<path fill="none" stroke="#aeb3b9" style="stroke: var(--color1, #aeb3b9)" stroke-linejoin="miter" stroke-linecap="butt" stroke-miterlimit="4" stroke-width="2.9091" d="M27.636 16c0 6.427-5.21 11.636-11.636 11.636s-11.636-5.21-11.636-11.636c0-6.427 5.21-11.636 11.636-11.636s11.636 5.21 11.636 11.636z"></path>
<path fill="#aeb3b9" style="fill: var(--color1, #aeb3b9)" d="M14.545 0h2.909v5.818h-2.909zM14.545 26.182h2.909v5.818h-2.909zM5.818 14.545v2.909h-5.818v-2.909zM32 14.545v2.909h-5.818v-2.909z"></path>
</symbol>
<symbol id="icon-star" viewBox="0 0 35 32">
<path fill="none" stroke="#7e8691" style="stroke: var(--color2, #7e8691)" stroke-linejoin="miter" stroke-linecap="butt" stroke-miterlimit="4" stroke-width="1.6" d="M17.6 2.589l3.37 10.373h10.907l-8.824 6.41 0.181 0.554 3.19 9.819-8.824-6.41-0.47 0.341-8.352 6.069 3.37-10.373-0.47-0.341-8.352-6.070h10.906l0.179-0.554 3.19-9.818z"></path>
</symbol>
<symbol id="icon-prev" viewBox="0 -3 32 32"><path d="M20.914 9.914l-2.829-2.829-8.914 8.914 8.914 8.914 2.828-2.828-6.086-6.086z"></path></symbol>
<symbol id="icon-next" viewBox="0 -3 32 32"><path d="M11.086 22.086l2.829 2.829 8.914-8.914-8.914-8.914-2.828 2.828 6.086 6.086z"></path></symbol>
<symbol id="icon-home-clouds" viewBox="0 0 41 32">
<path fill="#eee1dc" style="fill: var(--color1, #eee1dc)" d="M34.856 22.43c-4.302 0-14.279-3.141-18.705-7.058-1.632-1.445-2.459-2.932-2.459-4.421 0.004-3.312 2.689-5.995 6.002-5.995 0.59 0 1.16 0.085 1.698 0.244l-0.042-0.011c0.835-2.369 3.054-4.037 5.663-4.037 0.003 0 0.005 0 0.008 0h-0c2.165 0 4.147 1.178 5.203 3.014 0.151-0.013 0.326-0.021 0.503-0.021 3.315 0 6.002 2.687 6.002 6.002 0 0.404-0.040 0.799-0.116 1.181l0.006-0.038c1.724 1.077 2.856 2.962 2.863 5.112v0.001c0 1.575-0.634 3.046-1.785 4.14-1.050 0.998-2.492 1.655-4.063 1.847-0.22 0.026-0.475 0.042-0.734 0.042-0.016 0-0.031-0-0.047-0h0.002z"></path>
<path fill="#e0d2cd" style="fill: var(--color2, #e0d2cd)" d="M38.617 11.289c0.070-0.343 0.11-0.738 0.11-1.142 0-3.315-2.687-6.002-6.002-6.002-0.177 0-0.352 0.008-0.526 0.023l0.023-0.002c-0.963-1.649-2.647-2.788-4.609-2.985l-0.025-0.002v19.864c2.856 0.872 5.527 1.387 7.268 1.387 0.286 0 0.546-0.014 0.779-0.041 1.57-0.192 3.013-0.849 4.063-1.847 1.1-1.036 1.785-2.502 1.785-4.128 0-0.004 0-0.007 0-0.011v0.001c-0.007-2.151-1.14-4.036-2.839-5.098l-0.025-0.015z"></path>
<path fill="#fff4f4" style="fill: var(--color3, #fff4f4)" d="M17.268 30.848c-1.45-0.001-2.782-0.508-3.828-1.355l0.011 0.009c-0.55-0.447-1.013-0.976-1.376-1.572l-0.015-0.027c-0.754 0.468-1.667 0.745-2.646 0.747h-0c-2.272-0.007-4.193-1.498-4.846-3.555l-0.010-0.036c-2.571-0.273-4.557-2.429-4.558-5.050v-0c0.004-2.625 1.996-4.783 4.55-5.051l0.022-0.002c0.263-0.83 0.738-1.585 1.391-2.189 0.901-0.837 2.112-1.351 3.443-1.351 0.002 0 0.004 0 0.006 0h-0c0.935 0 1.843 0.261 2.626 0.735 0.378-0.632 0.843-1.168 1.385-1.613l0.011-0.009c1.037-0.846 2.375-1.36 3.833-1.361h0c1.393 0 2.753 0.484 3.832 1.361 0.559 0.455 1.031 1.007 1.396 1.62 0.749-0.463 1.658-0.737 2.63-0.737 1.333 0 2.545 0.515 3.449 1.357l-0.003-0.003c0.652 0.604 1.127 1.358 1.39 2.189 2.575 0.269 4.566 2.428 4.566 5.053 0 2.619-1.983 4.775-4.529 5.049l-0.022 0.002c-0.662 2.093-2.584 3.585-4.855 3.591h-0.001c-0.979-0.001-1.893-0.279-2.668-0.759l0.022 0.013c-0.365 0.607-0.836 1.15-1.393 1.599-1.034 0.837-2.364 1.345-3.814 1.346h-0z"></path>
<path fill="#f6efea" style="fill: var(--color4, #f6efea)" d="M32.818 16.201c-0.767-0.68-1.75-1.132-2.833-1.245l-0.022-0.002c-0.28-0.868-0.76-1.605-1.387-2.186l-0.003-0.003c-0.901-0.837-2.112-1.351-3.443-1.351-0.003 0-0.006 0-0.009 0h0c-0.933 0-1.842 0.261-2.625 0.735-0.378-0.632-0.843-1.168-1.385-1.613l-0.011-0.009c-1.037-0.846-2.374-1.359-3.831-1.361h-0v21.681c1.45-0.002 2.78-0.509 3.825-1.355l-0.011 0.009c0.557-0.449 1.028-0.992 1.393-1.599 0.788 0.481 1.704 0.747 2.647 0.747 2.272-0.007 4.193-1.498 4.846-3.555l0.010-0.036c2.572-0.273 4.557-2.43 4.557-5.052 0-1.513-0.662-2.871-1.711-3.802l-0.005-0.005z"></path>
</symbol>
<symbol id="icon-home-sunrise" viewBox="0 0 32 32">
<path fill="#ff6b09" style="fill: var(--color5, #ff6b09)" d="M16 5.104c0 0 0 0 0 0 0.518 0 0.938-0.42 0.938-0.938 0-0.001 0-0.001 0-0.002v0-3.227c0-0.518-0.42-0.938-0.938-0.938s-0.938 0.42-0.938 0.938v3.227c0 0.518 0.419 0.938 0.938 0.938zM31.062 15.062h-3.227c-0.518 0-0.938 0.42-0.938 0.938s0.42 0.938 0.938 0.938h3.227c0.518 0 0.938-0.42 0.938-0.938s-0.42-0.938-0.938-0.938v0zM5.104 16c0 0 0 0 0 0 0-0.518-0.42-0.938-0.938-0.938-0.001 0-0.001 0-0.002 0h-3.227c-0.518 0-0.938 0.42-0.938 0.938s0.42 0.938 0.938 0.938h3.227c0 0 0.001 0 0.002 0 0.518 0 0.938-0.42 0.938-0.938 0 0 0 0 0 0v0zM24.368 8.57c0.24 0 0.48-0.093 0.664-0.275l2.282-2.283c0.16-0.168 0.259-0.396 0.259-0.647 0-0.518-0.42-0.938-0.938-0.938-0.251 0-0.48 0.099-0.648 0.26l-2.281 2.281c-0.169 0.17-0.274 0.404-0.274 0.662 0 0.517 0.419 0.937 0.936 0.938h0zM25.032 23.706c-0.17-0.17-0.404-0.275-0.663-0.275-0.518 0-0.938 0.42-0.938 0.938 0 0.259 0.105 0.493 0.275 0.663l2.282 2.282c0.169 0.171 0.404 0.277 0.664 0.277s0.495-0.106 0.664-0.277l0-0c0.17-0.17 0.275-0.404 0.275-0.663s-0.105-0.494-0.275-0.663l-2.283-2.282zM6.968 23.706l-2.28 2.282c-0.17 0.17-0.275 0.404-0.275 0.663 0 0.518 0.42 0.938 0.938 0.938 0.259 0 0.493-0.105 0.663-0.275l2.282-2.283c0.16-0.168 0.259-0.396 0.259-0.647 0-0.518-0.42-0.938-0.938-0.938-0.251 0-0.48 0.099-0.648 0.26l0-0zM6.968 8.294c0.169 0.171 0.404 0.276 0.663 0.276s0.494-0.106 0.663-0.276l0-0c0.17-0.17 0.275-0.404 0.275-0.663s-0.105-0.494-0.275-0.663l-2.282-2.28c-0.17-0.17-0.405-0.276-0.664-0.276-0.518 0-0.938 0.42-0.938 0.938 0 0.259 0.105 0.493 0.274 0.662l2.283 2.283zM20.182 5.936c0.107 0.046 0.231 0.073 0.362 0.073 0.387 0 0.719-0.235 0.861-0.571l0.002-0.006 1.238-2.981c0.049-0.11 0.078-0.239 0.078-0.374 0-0.518-0.42-0.938-0.938-0.938-0.393 0-0.73 0.242-0.869 0.585l-0.002 0.006-1.238 2.981c-0.045 0.106-0.072 0.23-0.072 0.36 0 0.388 0.235 0.721 0.571 0.863l0.006 0.002zM30.269 20.915l-2.981-1.238c-0.11-0.049-0.239-0.078-0.374-0.078-0.518 0-0.938 0.42-0.938 0.938 0 0.393 0.242 0.73 0.585 0.869l0.006 0.002 2.981 1.238c0.11 0.049 0.239 0.078 0.374 0.078 0.518 0 0.938-0.42 0.938-0.938 0-0.393-0.242-0.73-0.585-0.869l-0.006-0.002zM11.818 26.064c-0.106-0.045-0.23-0.072-0.36-0.072-0.388 0-0.721 0.235-0.863 0.571l-0.002 0.006-1.238 2.979c-0.049 0.11-0.078 0.239-0.078 0.374 0 0.518 0.42 0.938 0.938 0.938 0.393 0 0.73-0.242 0.869-0.585l0.002-0.006 1.238-2.981c0.045-0.106 0.072-0.23 0.072-0.36 0-0.388-0.236-0.721-0.571-0.863l-0.006-0.002zM1.731 11.085l2.981 1.238c0.107 0.046 0.231 0.073 0.362 0.073 0.388 0 0.72-0.236 0.862-0.572l0.002-0.006c0.045-0.106 0.072-0.23 0.072-0.359 0-0.388-0.236-0.722-0.573-0.864l-0.006-0.002-2.979-1.238c-0.102-0.042-0.221-0.066-0.346-0.066-0.518 0-0.938 0.42-0.938 0.938 0 0.383 0.229 0.712 0.558 0.857l0.006 0.002zM26.074 11.84c0.144 0.344 0.478 0.581 0.867 0.581 0.129 0 0.251-0.026 0.363-0.073l-0.006 0.002 2.982-1.232c0.331-0.149 0.558-0.477 0.558-0.857 0-0.518-0.42-0.938-0.938-0.938-0.121 0-0.236 0.023-0.342 0.064l0.006-0.002-2.984 1.232c-0.342 0.145-0.578 0.478-0.578 0.866 0 0.129 0.026 0.252 0.073 0.364l-0.002-0.006zM21.382 26.582c-0.149-0.331-0.477-0.558-0.857-0.558-0.518 0-0.938 0.42-0.938 0.938 0 0.121 0.023 0.236 0.064 0.342l-0.002-0.006 1.232 2.982c0.139 0.355 0.478 0.602 0.875 0.602 0.518 0 0.938-0.42 0.938-0.938 0-0.137-0.030-0.268-0.083-0.386l0.002 0.006-1.232-2.982zM5.926 20.16c-0.144-0.344-0.478-0.581-0.867-0.581-0.129 0-0.251 0.026-0.363 0.073l0.006-0.002-2.982 1.232c-0.331 0.149-0.558 0.477-0.558 0.857 0 0.518 0.42 0.938 0.938 0.938 0.121 0 0.236-0.023 0.342-0.064l-0.006 0.002 2.982-1.232c0.343-0.144 0.58-0.478 0.58-0.867 0-0.129-0.026-0.252-0.073-0.364l0.002 0.006zM10.618 5.419c0.145 0.343 0.478 0.579 0.866 0.579 0.518 0 0.938-0.42 0.938-0.938 0-0.129-0.026-0.253-0.073-0.365l0.002 0.006-1.232-2.982c-0.149-0.331-0.477-0.558-0.857-0.558-0.518 0-0.938 0.42-0.938 0.938 0 0.121 0.023 0.236 0.064 0.342l-0.002-0.006 1.232 2.984z"></path>
<path fill="#ff6b09" style="fill: var(--color5, #ff6b09)" d="M16.938 24.637c4.375-0.494 7.745-4.171 7.75-8.636v-0.001c-0.005-4.796-3.892-8.683-8.687-8.688h-0.001c-4.796 0.005-8.683 3.892-8.688 8.687v0.001c0.006 4.466 3.375 8.143 7.711 8.633l0.040 0.004v6.426c0 0.518 0.42 0.938 0.938 0.938s0.938-0.42 0.938-0.938v0-6.426zM9.187 16c0.005-3.761 3.052-6.808 6.812-6.813h0c3.761 0.005 6.808 3.052 6.813 6.812v0c0 3.438-2.56 6.288-5.875 6.747v-3.578l0.213 0.213c0.168 0.16 0.396 0.259 0.647 0.259 0.518 0 0.938-0.42 0.938-0.938 0-0.251-0.099-0.48-0.26-0.648l-1.817-1.817c-0.17-0.169-0.404-0.274-0.662-0.274-0.254 0-0.484 0.101-0.653 0.265l0-0-1.875 1.822c-0.16 0.168-0.258 0.396-0.258 0.646 0 0.518 0.42 0.938 0.938 0.938 0.241 0 0.461-0.091 0.627-0.241l-0.001 0.001 0.29-0.28v3.632c-3.335-0.481-5.87-3.317-5.875-6.747v-0.001z"></path>
</symbol>
<symbol id="icon-home-sunset" viewBox="0 0 32 32">
<path fill="#ff6b09" style="fill: var(--color5, #ff6b09)" d="M16 5.104c0 0 0 0 0 0 0.518 0 0.938-0.42 0.938-0.938 0-0.001 0-0.001 0-0.002v0-3.227c0-0.518-0.42-0.938-0.938-0.938s-0.938 0.42-0.938 0.938v3.227c0 0.518 0.419 0.938 0.938 0.938zM31.062 15.062h-3.227c-0.518 0-0.938 0.42-0.938 0.938s0.42 0.938 0.938 0.938h3.227c0.518 0 0.938-0.42 0.938-0.938s-0.42-0.938-0.938-0.938v0zM5.104 16c0 0 0 0 0 0 0-0.518-0.42-0.938-0.938-0.938-0.001 0-0.001 0-0.002 0h-3.227c-0.518 0-0.938 0.42-0.938 0.938s0.42 0.938 0.938 0.938h3.227c0 0 0.001 0 0.002 0 0.518 0 0.938-0.42 0.938-0.938 0 0 0 0 0 0v0zM24.368 8.57c0.24 0 0.48-0.093 0.664-0.275l2.282-2.283c0.16-0.168 0.259-0.396 0.259-0.647 0-0.518-0.42-0.938-0.938-0.938-0.251 0-0.48 0.099-0.648 0.26l-2.281 2.281c-0.169 0.17-0.274 0.404-0.274 0.662 0 0.517 0.419 0.937 0.936 0.938h0zM25.032 23.706c-0.17-0.17-0.404-0.275-0.663-0.275-0.518 0-0.938 0.42-0.938 0.938 0 0.259 0.105 0.493 0.275 0.663l2.282 2.282c0.169 0.171 0.404 0.277 0.664 0.277s0.495-0.106 0.664-0.277l0-0c0.17-0.17 0.275-0.404 0.275-0.663s-0.105-0.494-0.275-0.663l-2.283-2.282zM6.968 23.706l-2.28 2.282c-0.17 0.17-0.275 0.404-0.275 0.663 0 0.518 0.42 0.938 0.938 0.938 0.259 0 0.493-0.105 0.663-0.275l2.282-2.283c0.16-0.168 0.259-0.396 0.259-0.647 0-0.518-0.42-0.938-0.938-0.938-0.251 0-0.48 0.099-0.648 0.26l0-0zM6.968 8.294c0.169 0.171 0.404 0.276 0.663 0.276s0.494-0.106 0.663-0.276l0-0c0.17-0.17 0.275-0.404 0.275-0.663s-0.105-0.494-0.275-0.663l-2.282-2.28c-0.17-0.17-0.405-0.276-0.664-0.276-0.518 0-0.938 0.42-0.938 0.938 0 0.259 0.105 0.493 0.274 0.662l2.283 2.283zM20.182 5.936c0.107 0.046 0.231 0.073 0.362 0.073 0.387 0 0.719-0.235 0.861-0.571l0.002-0.006 1.238-2.981c0.049-0.11 0.078-0.239 0.078-0.374 0-0.518-0.42-0.938-0.938-0.938-0.393 0-0.73 0.242-0.869 0.585l-0.002 0.006-1.238 2.981c-0.045 0.106-0.072 0.23-0.072 0.36 0 0.388 0.235 0.721 0.571 0.863l0.006 0.002zM30.269 20.915l-2.981-1.238c-0.11-0.049-0.239-0.078-0.374-0.078-0.518 0-0.938 0.42-0.938 0.938 0 0.393 0.242 0.73 0.585 0.869l0.006 0.002 2.981 1.238c0.106 0.045 0.23 0.072 0.36 0.072 0.518 0 0.937-0.42 0.937-0.937 0-0.388-0.236-0.721-0.571-0.863l-0.006-0.002zM11.818 26.064c-0.106-0.045-0.23-0.072-0.36-0.072-0.388 0-0.721 0.235-0.863 0.571l-0.002 0.006-1.238 2.979c-0.049 0.11-0.078 0.239-0.078 0.374 0 0.518 0.42 0.938 0.938 0.938 0.393 0 0.73-0.242 0.869-0.585l0.002-0.006 1.24-2.981c0.045-0.106 0.072-0.23 0.072-0.359 0-0.388-0.236-0.722-0.573-0.864l-0.006-0.002zM1.731 11.085l2.981 1.238c0.107 0.046 0.231 0.073 0.362 0.073 0.388 0 0.72-0.236 0.862-0.572l0.002-0.006c0.045-0.106 0.072-0.23 0.072-0.359 0-0.388-0.236-0.722-0.573-0.864l-0.006-0.002-2.979-1.238c-0.102-0.042-0.221-0.066-0.346-0.066-0.518 0-0.938 0.42-0.938 0.938 0 0.383 0.229 0.712 0.558 0.857l0.006 0.002zM26.074 11.84c0.144 0.344 0.478 0.581 0.867 0.581 0.129 0 0.251-0.026 0.363-0.073l-0.006 0.002 2.982-1.232c0.331-0.149 0.558-0.477 0.558-0.857 0-0.518-0.42-0.938-0.938-0.938-0.121 0-0.236 0.023-0.342 0.064l0.006-0.002-2.984 1.232c-0.342 0.145-0.578 0.478-0.578 0.866 0 0.129 0.026 0.252 0.073 0.364l-0.002-0.006zM21.382 26.582c-0.149-0.331-0.477-0.558-0.857-0.558-0.518 0-0.938 0.42-0.938 0.938 0 0.121 0.023 0.236 0.064 0.342l-0.002-0.006 1.232 2.982c0.149 0.331 0.477 0.558 0.857 0.558 0.518 0 0.938-0.42 0.938-0.938 0-0.121-0.023-0.236-0.064-0.342l0.002 0.006-1.232-2.982zM5.928 20.158c-0.144-0.343-0.478-0.58-0.867-0.58-0.129 0-0.253 0.026-0.365 0.074l0.006-0.002-2.982 1.232c-0.331 0.149-0.558 0.477-0.558 0.857 0 0.518 0.42 0.938 0.938 0.938 0.121 0 0.236-0.023 0.342-0.064l-0.006 0.002 2.984-1.232c0.343-0.144 0.58-0.478 0.58-0.867 0-0.129-0.026-0.252-0.073-0.364l0.002 0.006zM10.618 5.419c0.145 0.343 0.478 0.579 0.866 0.579 0.518 0 0.938-0.42 0.938-0.938 0-0.129-0.026-0.253-0.073-0.365l0.002 0.006-1.232-2.982c-0.149-0.331-0.477-0.558-0.857-0.558-0.518 0-0.938 0.42-0.938 0.938 0 0.121 0.023 0.236 0.064 0.342l-0.002-0.006 1.232 2.984z"></path>
<path fill="#ff6b09" style="fill: var(--color5, #ff6b09)" d="M17.15 28.582l-0.213 0.213v-4.158c4.375-0.494 7.745-4.171 7.75-8.636v-0.001c-0.005-4.796-3.892-8.683-8.687-8.688h-0.001c-4.796 0.005-8.683 3.892-8.688 8.687v0.001c0.006 4.466 3.375 8.143 7.711 8.633l0.040 0.004v4.213l-0.288-0.282c-0.167-0.157-0.393-0.253-0.641-0.253-0.518 0-0.938 0.42-0.938 0.938 0 0.257 0.104 0.49 0.271 0.66l-0-0 1.875 1.824c0.168 0.164 0.398 0.265 0.652 0.265 0.259 0 0.494-0.106 0.663-0.276l1.818-1.816c0.17-0.17 0.275-0.405 0.275-0.664 0-0.518-0.42-0.938-0.938-0.938-0.259 0-0.493 0.105-0.663 0.274v0zM9.187 16c0.005-3.761 3.052-6.808 6.812-6.813h0c3.761 0.005 6.808 3.052 6.813 6.812v0c0 3.438-2.56 6.288-5.875 6.747v-2.224c0-0.518-0.42-0.938-0.938-0.938s-0.938 0.42-0.938 0.938v2.224c-3.335-0.481-5.87-3.317-5.875-6.747v-0.001z"></path>
</symbol>
<symbol id="wind" viewBox="0 0 32 32">
<path fill="#fff" style="fill: var(--color1, #fff)" opacity="0.54" d="M25.316 2.643c-1.516 0-3.002 0.523-4.185 1.472-0.404 0.324-0.468 0.914-0.144 1.318s0.914 0.468 1.318 0.144c0.851-0.683 1.92-1.059 3.011-1.059 2.652 0 4.809 2.157 4.809 4.809s-2.157 4.809-4.809 4.809h-17.628c-0.518 0-0.938 0.42-0.938 0.938s0.42 0.938 0.938 0.938h17.628c3.686 0 6.684-2.999 6.684-6.684s-2.999-6.684-6.684-6.684z"></path>
<path fill="#fff" style="fill: var(--color1, #fff)" opacity="0.54" d="M5.891 12.268h10.015c0.518 0 0.937-0.42 0.937-0.938s-0.42-0.938-0.937-0.938h-10.015c-0.518 0-0.938 0.42-0.938 0.938s0.42 0.938 0.938 0.938z"></path>
<path fill="#fff" style="fill: var(--color1, #fff)" opacity="0.54" d="M15.643 17.893h-14.706c-0.518 0-0.938 0.42-0.938 0.938s0.42 0.937 0.938 0.937h14.706c2.126 0 3.857 1.73 3.857 3.857s-1.73 3.857-3.857 3.857c-0.875 0-1.732-0.302-2.414-0.849-0.404-0.324-0.994-0.26-1.318 0.144s-0.26 0.994 0.144 1.318c1.014 0.814 2.288 1.262 3.588 1.262 3.16 0 5.732-2.571 5.732-5.732s-2.571-5.732-5.732-5.732z"></path>
<path fill="#fff" style="fill: var(--color1, #fff)" opacity="0.54" d="M0.938 12.268h1.265c0.518 0 0.938-0.42 0.938-0.938s-0.42-0.938-0.938-0.938h-1.265c-0.518 0-0.938 0.42-0.938 0.938s0.42 0.938 0.938 0.938z"></path>
<path fill="#fff" style="fill: var(--color1, #fff)" opacity="0.54" d="M12.25 22.563c0-0.518-0.42-0.938-0.938-0.938h-5.625c-0.518 0-0.938 0.42-0.938 0.938s0.42 0.937 0.938 0.937h5.625c0.518 0 0.938-0.42 0.938-0.937z"></path>
</symbol>
<symbol id="humidity" viewBox="0 0 32 32">
<path fill="#fff" style="fill: var(--color1, #fff)" opacity="0.54" d="M28.62 9.399c-0.597-1.021-1.234-1.986-1.796-2.718-0.828-1.079-1.317-1.461-1.868-1.461-0.523 0-0.948 0.366-1.426 0.916-0.352 0.405-0.771 0.966-1.212 1.624-0.632 0.942-1.24 1.969-1.759 2.965-0.556-1.066-1.076-1.985-1.461-2.643-1.203-2.059-2.486-4.001-3.613-5.47-1.848-2.409-2.542-2.61-3.048-2.61s-1.201 0.202-3.049 2.611c-1.127 1.469-2.41 3.411-3.612 5.47-1.446 2.474-4.808 8.639-4.808 12.451 0 6.324 5.145 11.469 11.469 11.469 5.934 0 10.829-4.529 11.411-10.312 0.364 0.067 0.734 0.102 1.108 0.102 3.35 0 6.075-2.725 6.075-6.075 0-1.906-1.511-4.776-2.411-6.316zM12.437 30.125c-5.29 0-9.594-4.304-9.594-9.594 0-2.233 1.6-6.358 4.279-11.034 2.392-4.173 4.524-6.857 5.315-7.519 0.791 0.662 2.923 3.345 5.315 7.519 2.679 4.676 4.279 8.801 4.279 11.034 0 5.29-4.304 9.594-9.594 9.594zM24.956 19.915c-0.371 0-0.736-0.049-1.090-0.143-0.207-2.066-1.185-4.634-2.256-6.925 1.043-2.328 2.589-4.622 3.345-5.498 0.477 0.55 1.322 1.709 2.262 3.37 1.214 2.147 1.939 4.014 1.939 4.995 0 2.316-1.884 4.2-4.2 4.2z"></path>
<path fill="#fff" style="fill: var(--color1, #fff)" opacity="0.54" d="M15.011 16.073c-0.448-0.259-1.022-0.105-1.281 0.343l-4.21 7.293c-0.259 0.448-0.105 1.022 0.343 1.281 0.148 0.085 0.309 0.126 0.468 0.126 0.324 0 0.639-0.168 0.813-0.469l4.21-7.293c0.259-0.448 0.105-1.022-0.343-1.281z"></path>
<path fill="#fff" style="fill: var(--color1, #fff)" opacity="0.54" d="M10.094 17.937c0-0.516-0.421-0.937-0.938-0.937s-0.938 0.421-0.938 0.937c0 0.516 0.421 0.938 0.938 0.938s0.938-0.421 0.938-0.938z"></path>
<path fill="#fff" style="fill: var(--color1, #fff)" opacity="0.54" d="M15.406 22.312c-0.516 0-0.938 0.421-0.938 0.937s0.421 0.938 0.938 0.938c0.516 0 0.937-0.421 0.937-0.938s-0.421-0.937-0.937-0.937z"></path>
</symbol>
<symbol id="barometer" viewBox="0 0 32 32">
<path fill="#fff" style="fill: var(--color1, #fff)" opacity="0.54" d="M18.489 4.12c0.206-0.391 0.324-0.836 0.324-1.308 0-1.551-1.262-2.813-2.812-2.813s-2.812 1.262-2.812 2.813c0 0.472 0.117 0.917 0.324 1.308-6.564 1.178-11.561 6.931-11.561 13.829 0 7.747 6.303 14.050 14.050 14.050s14.050-6.303 14.050-14.050c0-6.898-4.997-12.651-11.561-13.829zM16 1.875c0.517 0 0.938 0.421 0.938 0.938s-0.421 0.938-0.938 0.938c-0.517 0-0.937-0.421-0.937-0.938s0.421-0.938 0.937-0.938zM16 30.125c-6.713 0-12.175-5.462-12.175-12.175s5.462-12.175 12.175-12.175c6.713 0 12.175 5.462 12.175 12.175s-5.462 12.175-12.175 12.175z"></path>
<path fill="#fff" style="fill: var(--color1, #fff)" opacity="0.54" d="M23.332 10.69c-0.013-0.015-0.026-0.030-0.040-0.044s-0.031-0.028-0.047-0.042c-1.866-1.84-4.426-2.978-7.245-2.978-2.832 0-5.4 1.146-7.267 2.998-0.008 0.008-0.017 0.014-0.025 0.022-0.007 0.007-0.012 0.014-0.019 0.021-1.862 1.869-3.014 4.444-3.014 7.284 0 0.518 0.42 0.937 0.938 0.937h1.063c0.518 0 0.938-0.42 0.938-0.937s-0.42-0.938-0.938-0.938h-0.073c0.181-1.631 0.828-3.124 1.805-4.342l0.052 0.052c0.183 0.183 0.423 0.275 0.663 0.275s0.48-0.091 0.663-0.275c0.366-0.366 0.366-0.96 0-1.326l-0.050-0.050c1.215-0.971 2.703-1.614 4.328-1.794v0.073c0 0.518 0.42 0.938 0.937 0.938s0.938-0.42 0.938-0.938v-0.073c1.625 0.18 3.112 0.824 4.327 1.795l-0.050 0.050c-0.366 0.366-0.366 0.96 0 1.326 0.183 0.183 0.423 0.275 0.663 0.275s0.48-0.091 0.663-0.275l0.051-0.051c0.975 1.214 1.621 2.703 1.804 4.329h-0.084c-0.518 0-0.938 0.42-0.938 0.937s0.42 0.938 0.938 0.938c0 0 1.076-0 1.076-0 0.518-0.001 0.937-0.421 0.936-0.939-0.004-2.822-1.147-5.383-2.993-7.246z"></path>
<path fill="#fff" style="fill: var(--color1, #fff)" opacity="0.54" d="M20.251 13.698c-0.366-0.366-0.96-0.366-1.326 0l-3.915 3.915c-0.433-0.207-0.917-0.303-1.407-0.268-0.517 0.036-0.906 0.484-0.87 1s0.484 0.906 1.001 0.87c0.271-0.019 0.536 0.080 0.728 0.272 0.189 0.189 0.289 0.45 0.273 0.717-0.030 0.517 0.365 0.96 0.882 0.99 0.018 0.001 0.037 0.002 0.055 0.002 0.493-0 0.906-0.385 0.935-0.883 0.028-0.478-0.069-0.95-0.271-1.374l3.915-3.915c0.366-0.366 0.366-0.96 0-1.326z"></path>
<path fill="#fff" style="fill: var(--color1, #fff)" opacity="0.54" d="M21.375 24.688h-10.75c-0.518 0-0.938 0.42-0.938 0.937s0.42 0.938 0.938 0.938h10.75c0.518 0 0.937-0.42 0.937-0.938s-0.42-0.937-0.937-0.937z"></path>
</symbol>
</defs>
</svg>
