<svg aria-hidden="true" style="position: absolute; width: 0; height: 0; overflow: hidden;" version="1.1" xmlns="http://www.w3.org/2000/svg" xmlns:xlink="http://www.w3.org/1999/xlink">
<defs>
<symbol id="icon-location" viewBox="0 0 32 32">
<path fill="none" stroke="#aeb3b9" style="stroke: var(--color1, #aeb3b9)" stroke-linejoin="miter" stroke-linecap="butt" stroke-miterlimit="4" stroke-width="2.9091" d="M27.636 16c0 6.427-5.21 11.636-11.636 11.636s-11.636-5.21-11.636-11.636c0-6.427 5.21-11.636 11.636-11.636s11.636 5.21 11.636 11.636z"></path>
<path fill="#aeb3b9" style="fill: var(--color1, #aeb3b9)" d="M14.545 0h2.909v5.818h-2.909zM14.545 26.182h2.909v5.818h-2.909zM5.818 14.545v2.909h-5.818v-2.909zM32 14.545v2.909h-5.818v-2.909z"></path>
</symbol>
<symbol id="icon-star" viewBox="0 0 35 32">
<path fill="none" stroke="#7e8691" style="stroke: var(--color2, #7e8691)" stroke-linejoin="miter" stroke-linecap="butt" stroke-miterlimit="4" stroke-width="1.6" d="M17.6 2.589l3.37 10.373h10.907l-8.824 6.41 0.181 0.554 3.19 9.819-8.824-6.41-0.47 0.341-8.352 6.069 3.37-10.373-0.47-0.341-8.352-6.070h10.906l0.179-0.554 3.19-9.818z"></path>
</symbol>
<symbol id="icon-prev" viewBox="0 -3 32 32"><path d="M20.914 9.914l-2.829-2.829-8.914 8.914 8.914 8.914 2.828-2.828-6.086-6.086z"></path></symbol>
<symbol id="icon-next" viewBox="0 -3 32 32"><path d="M11.086 22.086l2.829 2.829 8.914-8.914-8.914-8.914-2.828 2.828 6.086 6.086z"></path></symbol>
</defs>
</svg>
